%TF.GenerationSoftware,KiCad,Pcbnew,10.0.1*%
%TF.CreationDate,2026-04-17T22:06:25-07:00*%
%TF.ProjectId,FreeEEG128-alpha,46726565-4545-4473-9132-382d616c7068,rev?*%
%TF.SameCoordinates,Original*%
%TF.FileFunction,OtherDrawing,Comment*%
%FSLAX46Y46*%
G04 Gerber Fmt 4.6, Leading zero omitted, Abs format (unit mm)*
G04 Created by KiCad (PCBNEW 10.0.1) date 2026-04-17 22:06:25*
%MOMM*%
%LPD*%
G01*
G04 APERTURE LIST*
%ADD10C,0.075000*%
G04 APERTURE END LIST*
D10*
X23387363Y25792985D02*
X23740916Y26146538D01*
X23740916Y26146538D02*
X23875603Y26011851D01*
X23875603Y26011851D02*
X23892439Y25961343D01*
X23892439Y25961343D02*
X23892439Y25927672D01*
X23892439Y25927672D02*
X23875603Y25877164D01*
X23875603Y25877164D02*
X23825096Y25826656D01*
X23825096Y25826656D02*
X23774588Y25809820D01*
X23774588Y25809820D02*
X23740916Y25809820D01*
X23740916Y25809820D02*
X23690409Y25826656D01*
X23690409Y25826656D02*
X23555722Y25961343D01*
X23976619Y25271072D02*
X23942947Y25271072D01*
X23942947Y25271072D02*
X23875603Y25304744D01*
X23875603Y25304744D02*
X23841932Y25338416D01*
X23841932Y25338416D02*
X23808260Y25405759D01*
X23808260Y25405759D02*
X23808260Y25473103D01*
X23808260Y25473103D02*
X23825096Y25523610D01*
X23825096Y25523610D02*
X23875603Y25607790D01*
X23875603Y25607790D02*
X23926111Y25658297D01*
X23926111Y25658297D02*
X24010290Y25708805D01*
X24010290Y25708805D02*
X24060798Y25725641D01*
X24060798Y25725641D02*
X24128141Y25725641D01*
X24128141Y25725641D02*
X24195485Y25691969D01*
X24195485Y25691969D02*
X24229157Y25658297D01*
X24229157Y25658297D02*
X24262828Y25590954D01*
X24262828Y25590954D02*
X24262828Y25557282D01*
X24397515Y25153221D02*
X24431187Y25085878D01*
X24431187Y25085878D02*
X24431187Y25052206D01*
X24431187Y25052206D02*
X24414351Y25001698D01*
X24414351Y25001698D02*
X24363844Y24951191D01*
X24363844Y24951191D02*
X24313336Y24934355D01*
X24313336Y24934355D02*
X24279664Y24934355D01*
X24279664Y24934355D02*
X24229157Y24951191D01*
X24229157Y24951191D02*
X24094470Y25085878D01*
X24094470Y25085878D02*
X24448023Y25439431D01*
X24448023Y25439431D02*
X24565874Y25321580D01*
X24565874Y25321580D02*
X24582710Y25271072D01*
X24582710Y25271072D02*
X24582710Y25237401D01*
X24582710Y25237401D02*
X24565874Y25186893D01*
X24565874Y25186893D02*
X24532202Y25153221D01*
X24532202Y25153221D02*
X24481695Y25136385D01*
X24481695Y25136385D02*
X24448023Y25136385D01*
X24448023Y25136385D02*
X24397515Y25153221D01*
X24397515Y25153221D02*
X24279664Y25271072D01*
X24902591Y24648145D02*
X25020443Y24530294D01*
X24885756Y24294592D02*
X24717397Y24462951D01*
X24717397Y24462951D02*
X25070950Y24816504D01*
X25070950Y24816504D02*
X25239309Y24648145D01*
X25188801Y23991546D02*
X25542355Y24345099D01*
X25205637Y24008382D02*
X25155130Y24025218D01*
X25155130Y24025218D02*
X25087786Y24092561D01*
X25087786Y24092561D02*
X25070950Y24143069D01*
X25070950Y24143069D02*
X25070950Y24176741D01*
X25070950Y24176741D02*
X25087786Y24227248D01*
X25087786Y24227248D02*
X25188801Y24328264D01*
X25188801Y24328264D02*
X25239309Y24345099D01*
X25239309Y24345099D02*
X25272981Y24345099D01*
X25272981Y24345099D02*
X25323488Y24328264D01*
X25323488Y24328264D02*
X25390832Y24260920D01*
X25390832Y24260920D02*
X25407668Y24210412D01*
X25744385Y23907367D02*
X25458175Y23621157D01*
X25458175Y23621157D02*
X25407668Y23604321D01*
X25407668Y23604321D02*
X25373996Y23604321D01*
X25373996Y23604321D02*
X25323488Y23621157D01*
X25323488Y23621157D02*
X25272981Y23671664D01*
X25272981Y23671664D02*
X25256145Y23722172D01*
X25525519Y23688500D02*
X25475011Y23705336D01*
X25475011Y23705336D02*
X25407668Y23772680D01*
X25407668Y23772680D02*
X25390832Y23823187D01*
X25390832Y23823187D02*
X25390832Y23856859D01*
X25390832Y23856859D02*
X25407668Y23907367D01*
X25407668Y23907367D02*
X25508683Y24008382D01*
X25508683Y24008382D02*
X25559191Y24025218D01*
X25559191Y24025218D02*
X25592862Y24025218D01*
X25592862Y24025218D02*
X25643370Y24008382D01*
X25643370Y24008382D02*
X25710714Y23941038D01*
X25710714Y23941038D02*
X25727549Y23890531D01*
X25828565Y23385454D02*
X25778057Y23402290D01*
X25778057Y23402290D02*
X25710714Y23469634D01*
X25710714Y23469634D02*
X25693878Y23520141D01*
X25693878Y23520141D02*
X25710714Y23570649D01*
X25710714Y23570649D02*
X25845401Y23705336D01*
X25845401Y23705336D02*
X25895908Y23722172D01*
X25895908Y23722172D02*
X25946416Y23705336D01*
X25946416Y23705336D02*
X26013759Y23637993D01*
X26013759Y23637993D02*
X26030595Y23587485D01*
X26030595Y23587485D02*
X26013759Y23536977D01*
X26013759Y23536977D02*
X25980088Y23503306D01*
X25980088Y23503306D02*
X25778057Y23637993D01*
X-26133334Y-23708968D02*
X-25779781Y-23355415D01*
X-25779781Y-23355415D02*
X-25645094Y-23490102D01*
X-25645094Y-23490102D02*
X-25628258Y-23540610D01*
X-25628258Y-23540610D02*
X-25628258Y-23574281D01*
X-25628258Y-23574281D02*
X-25645094Y-23624789D01*
X-25645094Y-23624789D02*
X-25695601Y-23675297D01*
X-25695601Y-23675297D02*
X-25746109Y-23692133D01*
X-25746109Y-23692133D02*
X-25779781Y-23692133D01*
X-25779781Y-23692133D02*
X-25830288Y-23675297D01*
X-25830288Y-23675297D02*
X-25964975Y-23540610D01*
X-25544078Y-24230881D02*
X-25577750Y-24230881D01*
X-25577750Y-24230881D02*
X-25645094Y-24197209D01*
X-25645094Y-24197209D02*
X-25678765Y-24163537D01*
X-25678765Y-24163537D02*
X-25712437Y-24096194D01*
X-25712437Y-24096194D02*
X-25712437Y-24028850D01*
X-25712437Y-24028850D02*
X-25695601Y-23978343D01*
X-25695601Y-23978343D02*
X-25645094Y-23894163D01*
X-25645094Y-23894163D02*
X-25594586Y-23843656D01*
X-25594586Y-23843656D02*
X-25510407Y-23793148D01*
X-25510407Y-23793148D02*
X-25459899Y-23776312D01*
X-25459899Y-23776312D02*
X-25392556Y-23776312D01*
X-25392556Y-23776312D02*
X-25325212Y-23809984D01*
X-25325212Y-23809984D02*
X-25291540Y-23843656D01*
X-25291540Y-23843656D02*
X-25257869Y-23910999D01*
X-25257869Y-23910999D02*
X-25257869Y-23944671D01*
X-25123182Y-24348732D02*
X-25089510Y-24416075D01*
X-25089510Y-24416075D02*
X-25089510Y-24449747D01*
X-25089510Y-24449747D02*
X-25106346Y-24500255D01*
X-25106346Y-24500255D02*
X-25156853Y-24550762D01*
X-25156853Y-24550762D02*
X-25207361Y-24567598D01*
X-25207361Y-24567598D02*
X-25241033Y-24567598D01*
X-25241033Y-24567598D02*
X-25291540Y-24550762D01*
X-25291540Y-24550762D02*
X-25426227Y-24416075D01*
X-25426227Y-24416075D02*
X-25072674Y-24062522D01*
X-25072674Y-24062522D02*
X-24954823Y-24180373D01*
X-24954823Y-24180373D02*
X-24937987Y-24230881D01*
X-24937987Y-24230881D02*
X-24937987Y-24264552D01*
X-24937987Y-24264552D02*
X-24954823Y-24315060D01*
X-24954823Y-24315060D02*
X-24988495Y-24348732D01*
X-24988495Y-24348732D02*
X-25039002Y-24365568D01*
X-25039002Y-24365568D02*
X-25072674Y-24365568D01*
X-25072674Y-24365568D02*
X-25123182Y-24348732D01*
X-25123182Y-24348732D02*
X-25241033Y-24230881D01*
X-24618106Y-24853808D02*
X-24500254Y-24971659D01*
X-24634941Y-25207361D02*
X-24803300Y-25039002D01*
X-24803300Y-25039002D02*
X-24449747Y-24685449D01*
X-24449747Y-24685449D02*
X-24281388Y-24853808D01*
X-24331896Y-25510407D02*
X-23978342Y-25156854D01*
X-24315060Y-25493571D02*
X-24365567Y-25476735D01*
X-24365567Y-25476735D02*
X-24432911Y-25409392D01*
X-24432911Y-25409392D02*
X-24449747Y-25358884D01*
X-24449747Y-25358884D02*
X-24449747Y-25325212D01*
X-24449747Y-25325212D02*
X-24432911Y-25274705D01*
X-24432911Y-25274705D02*
X-24331896Y-25173689D01*
X-24331896Y-25173689D02*
X-24281388Y-25156854D01*
X-24281388Y-25156854D02*
X-24247716Y-25156854D01*
X-24247716Y-25156854D02*
X-24197209Y-25173689D01*
X-24197209Y-25173689D02*
X-24129865Y-25241033D01*
X-24129865Y-25241033D02*
X-24113029Y-25291541D01*
X-23776312Y-25594586D02*
X-24062522Y-25880796D01*
X-24062522Y-25880796D02*
X-24113029Y-25897632D01*
X-24113029Y-25897632D02*
X-24146701Y-25897632D01*
X-24146701Y-25897632D02*
X-24197209Y-25880796D01*
X-24197209Y-25880796D02*
X-24247716Y-25830289D01*
X-24247716Y-25830289D02*
X-24264552Y-25779781D01*
X-23995178Y-25813453D02*
X-24045686Y-25796617D01*
X-24045686Y-25796617D02*
X-24113029Y-25729273D01*
X-24113029Y-25729273D02*
X-24129865Y-25678766D01*
X-24129865Y-25678766D02*
X-24129865Y-25645094D01*
X-24129865Y-25645094D02*
X-24113029Y-25594586D01*
X-24113029Y-25594586D02*
X-24012014Y-25493571D01*
X-24012014Y-25493571D02*
X-23961506Y-25476735D01*
X-23961506Y-25476735D02*
X-23927835Y-25476735D01*
X-23927835Y-25476735D02*
X-23877327Y-25493571D01*
X-23877327Y-25493571D02*
X-23809983Y-25560915D01*
X-23809983Y-25560915D02*
X-23793148Y-25611422D01*
X-23692132Y-26116499D02*
X-23742640Y-26099663D01*
X-23742640Y-26099663D02*
X-23809983Y-26032319D01*
X-23809983Y-26032319D02*
X-23826819Y-25981812D01*
X-23826819Y-25981812D02*
X-23809983Y-25931304D01*
X-23809983Y-25931304D02*
X-23675296Y-25796617D01*
X-23675296Y-25796617D02*
X-23624789Y-25779781D01*
X-23624789Y-25779781D02*
X-23574281Y-25796617D01*
X-23574281Y-25796617D02*
X-23506938Y-25863960D01*
X-23506938Y-25863960D02*
X-23490102Y-25914468D01*
X-23490102Y-25914468D02*
X-23506938Y-25964976D01*
X-23506938Y-25964976D02*
X-23540609Y-25998647D01*
X-23540609Y-25998647D02*
X-23742640Y-25863960D01*
M02*
