M48
; DRILL file KiCad 10.0.1 date 2026-04-17T22:06:26
; FORMAT={-:-/ absolute / metric / decimal}
; #@! TF.CreationDate,2026-04-17T22:06:26-07:00
; #@! TF.GenerationSoftware,Kicad,Pcbnew,10.0.1
; #@! TF.FileFunction,MixedPlating,1,4
FMAT,2
METRIC
; #@! TA.AperFunction,Plated,PTH,ComponentDrill
T1C0.200
; #@! TA.AperFunction,Plated,PTH,ViaDrill
T2C0.400
; #@! TA.AperFunction,Plated,PTH,ComponentDrill
T3C0.600
; #@! TA.AperFunction,Plated,PTH,ComponentDrill
T4C0.650
; #@! TA.AperFunction,Plated,PTH,ComponentDrill
T5C0.700
; #@! TA.AperFunction,Plated,PTH,ComponentDrill
T6C0.850
; #@! TA.AperFunction,Plated,PTH,ComponentDrill
T7C1.000
; #@! TA.AperFunction,NonPlated,NPTH,ComponentDrill
T8C0.800
; #@! TA.AperFunction,NonPlated,NPTH,ComponentDrill
T9C3.200
%
G90
G05
T1
X-23.71Y5.93
X-23.71Y5.93
X-23.71Y5.08
X-23.71Y5.08
X-23.71Y4.23
X-23.71Y4.23
X-23.71Y-4.23
X-23.71Y-4.23
X-23.71Y-5.08
X-23.71Y-5.08
X-23.71Y-5.93
X-23.71Y-5.93
X-22.86Y5.93
X-22.86Y5.93
X-22.86Y5.08
X-22.86Y5.08
X-22.86Y4.23
X-22.86Y4.23
X-22.86Y-4.23
X-22.86Y-4.23
X-22.86Y-5.08
X-22.86Y-5.08
X-22.86Y-5.93
X-22.86Y-5.93
X-22.01Y5.93
X-22.01Y5.93
X-22.01Y5.08
X-22.01Y5.08
X-22.01Y4.23
X-22.01Y4.23
X-22.01Y-4.23
X-22.01Y-4.23
X-22.01Y-5.08
X-22.01Y-5.08
X-22.01Y-5.93
X-22.01Y-5.93
X-5.93Y23.71
X-5.93Y23.71
X-5.93Y22.86
X-5.93Y22.86
X-5.93Y22.01
X-5.93Y22.01
X-5.93Y-22.01
X-5.93Y-22.01
X-5.93Y-22.86
X-5.93Y-22.86
X-5.93Y-23.71
X-5.93Y-23.71
X-5.08Y23.71
X-5.08Y23.71
X-5.08Y22.86
X-5.08Y22.86
X-5.08Y22.01
X-5.08Y22.01
X-5.08Y-22.01
X-5.08Y-22.01
X-5.08Y-22.86
X-5.08Y-22.86
X-5.08Y-23.71
X-5.08Y-23.71
X-4.23Y23.71
X-4.23Y23.71
X-4.23Y22.86
X-4.23Y22.86
X-4.23Y22.01
X-4.23Y22.01
X-4.23Y-22.01
X-4.23Y-22.01
X-4.23Y-22.86
X-4.23Y-22.86
X-4.23Y-23.71
X-4.23Y-23.71
X4.23Y23.71
X4.23Y23.71
X4.23Y22.86
X4.23Y22.86
X4.23Y22.01
X4.23Y22.01
X4.23Y-22.01
X4.23Y-22.01
X4.23Y-22.86
X4.23Y-22.86
X4.23Y-23.71
X4.23Y-23.71
X5.08Y23.71
X5.08Y23.71
X5.08Y22.86
X5.08Y22.86
X5.08Y22.01
X5.08Y22.01
X5.08Y-22.01
X5.08Y-22.01
X5.08Y-22.86
X5.08Y-22.86
X5.08Y-23.71
X5.08Y-23.71
X5.93Y23.71
X5.93Y23.71
X5.93Y22.86
X5.93Y22.86
X5.93Y22.01
X5.93Y22.01
X5.93Y-22.01
X5.93Y-22.01
X5.93Y-22.86
X5.93Y-22.86
X5.93Y-23.71
X5.93Y-23.71
X22.01Y5.93
X22.01Y5.93
X22.01Y5.08
X22.01Y5.08
X22.01Y4.23
X22.01Y4.23
X22.01Y-4.23
X22.01Y-4.23
X22.01Y-5.08
X22.01Y-5.08
X22.01Y-5.93
X22.01Y-5.93
X22.86Y5.93
X22.86Y5.93
X22.86Y5.08
X22.86Y5.08
X22.86Y4.23
X22.86Y4.23
X22.86Y-4.23
X22.86Y-4.23
X22.86Y-5.08
X22.86Y-5.08
X22.86Y-5.93
X22.86Y-5.93
X23.71Y5.93
X23.71Y5.93
X23.71Y5.08
X23.71Y5.08
X23.71Y4.23
X23.71Y4.23
X23.71Y-4.23
X23.71Y-4.23
X23.71Y-5.08
X23.71Y-5.08
X23.71Y-5.93
X23.71Y-5.93
T2
X-34.091Y0.011
X-30.607Y4.216
X-30.587Y-2.269
X-30.53Y-3.194
X-30.493Y0.789
X-30.48Y5.258
X-30.48Y-1.016
X-30.48Y-7.518
X-30.455Y-5.994
X-30.429Y7.95
X-30.404Y6.985
X-30.404Y-4.877
X-30.341Y9.357
X-30.302Y-8.433
X-30.276Y10.281
X-26.724Y-5.986
X-26.643Y-3.09
X-26.474Y6.261
X-26.416Y-4.996
X-26.298Y3.04
X-26.029Y5.092
X-25.975Y8.167
X-25.527Y-2.464
X-25.491Y-7.62
X-25.473Y-8.546
X-25.334Y2.861
X-24.69Y8.101
X-24.056Y-18.811
X-23.722Y-21.556
X-22.686Y1.628
X-22.638Y-22.694
X-22.507Y-19.137
X-22.481Y-1.653
X-22.352Y0.496
X-22.352Y-0.508
X-22.205Y8.358
X-22.194Y-8.354
X-21.379Y9.781
X-21.332Y-23.96
X-21.292Y-9.624
X-21.207Y-0.379
X-20.418Y9.516
X-20.312Y-20.287
X-20.305Y-9.544
X-20.135Y-24.961
X-20.007Y1.521
X-19.304Y8.636
X-19.11Y-8.209
X-19.085Y1.619
X-19.011Y-1.541
X-18.386Y4.557
X-18.386Y2.574
X-18.288Y-8.636
X-18.163Y-5.724
X-17.855Y-3.818
X-17.802Y-7.63
X-17.78Y7.62
X-17.278Y3.77
X-17.272Y6.604
X-17.138Y-5.585
X-17.038Y-6.507
X-16.958Y-8.013
X-16.361Y4.034
X-16.182Y-3.263
X-15.253Y3.373
X-15.161Y-7.909
X-14.194Y-8.785
X-13.861Y8.468
X-13.778Y0.446
X-13.206Y9.124
X-12.706Y0.586
X-12.062Y-1.062
X-11.176Y1.524
X-10.909Y-7.938
X-10.744Y-2.151
X-10.401Y-10.909
X-10.281Y-30.301
X-9.84Y-20.465
X-9.821Y-2.223
X-9.799Y20.136
X-9.652Y-0.122
X-9.534Y21.336
X-9.398Y11.811
X-9.369Y-19.57
X-9.355Y-30.337
X-9.213Y-22.098
X-9.174Y-2.888
X-9.036Y19.163
X-8.853Y-0.591
X-8.589Y13.786
X-8.408Y-19.325
X-8.278Y16.234
X-8.255Y12.375
X-8.249Y30.323
X-8.249Y25.488
X-8.159Y18.401
X-8.15Y-26.039
X-8.128Y-18.288
X-8.1Y4.222
X-7.97Y-13.344
X-7.95Y-30.429
X-7.894Y-24.897
X-7.855Y9.76
X-7.651Y17.13
X-7.444Y-2.385
X-7.343Y30.517
X-7.322Y25.492
X-7.136Y-5.078
X-7.112Y-18.288
X-6.985Y-30.404
X-6.724Y-1.026
X-6.593Y16.137
X-6.244Y-26.467
X-6.236Y-5.294
X-6.173Y-11.269
X-6.081Y17.628
X-5.994Y30.455
X-5.923Y26.788
X-5.914Y-3.197
X-5.704Y-12.068
X-5.62Y-15.519
X-5.588Y-4.064
X-5.291Y-0.489
X-5.258Y-30.48
X-5.226Y-17.563
X-5.092Y-26.029
X-5.017Y-5.981
X-4.996Y26.416
X-4.933Y-1.343
X-4.877Y30.404
X-4.801Y-18.386
X-4.758Y18.268
X-4.51Y-16.974
X-4.45Y-4.316
X-4.216Y-30.607
X-4.214Y-8.612
X-4.175Y3.598
X-4.064Y16.764
X-3.82Y4.454
X-3.692Y-3.302
X-3.64Y-4.765
X-3.611Y-13.64
X-3.3Y-8.763
X-3.253Y8.431
X-3.194Y30.53
X-3.09Y26.643
X-3.04Y-26.298
X-2.861Y-25.334
X-2.574Y-18.386
X-2.473Y18.438
X-2.464Y25.527
X-2.453Y-5.684
X-2.269Y30.587
X-2.086Y-9.241
X-2.032Y8.128
X-1.728Y9.318
X-1.58Y10.249
X-1.542Y11.262
X-1.531Y-19.002
X-1.531Y-19.962
X-1.526Y18.913
X-1.524Y22.352
X-1.524Y-6.096
X-1.46Y-10.086
X-1.016Y30.48
X-1.016Y-11.176
X-1.016Y-30.48
X-0.853Y19.549
X-0.737Y-22.352
X-0.704Y21.597
X-0.7Y5.779
X-0.665Y-21.392
X-0.665Y-23.368
X-0.036Y17.324
X-0.011Y-34.091
X-0.007Y15.472
X0.0Y22.885
X0.011Y34.091
X0.014Y16.398
X0.041Y18.247
X0.059Y9.922
X0.309Y8.9
X0.626Y-21.336
X0.776Y19.648
X0.901Y-19.412
X0.966Y22.485
X0.969Y-23.321
X1.016Y30.48
X1.016Y-12.192
X1.016Y-22.352
X1.016Y-30.48
X1.18Y6.795
X1.208Y2.293
X1.374Y18.94
X1.69Y-5.93
X1.845Y-19.93
X1.887Y22.384
X2.162Y-0.119
X2.269Y-30.587
X2.394Y0.778
X2.464Y-25.527
X2.861Y25.334
X3.04Y26.298
X3.048Y8.636
X3.048Y-18.288
X3.09Y-26.643
X3.194Y-30.53
X4.155Y-16.47
X4.216Y30.607
X4.259Y8.851
X4.301Y16.801
X4.37Y-17.371
X4.6Y17.677
X4.713Y3.291
X4.877Y-30.404
X4.996Y-26.416
X4.998Y-2.032
X5.019Y18.535
X5.08Y-17.966
X5.092Y26.029
X5.258Y30.48
X5.378Y-7.777
X5.712Y-3.175
X5.977Y-16.629
X5.986Y-26.724
X5.994Y-30.455
X6.094Y3.812
X6.314Y26.477
X6.667Y-1.714
X6.913Y10.1
X6.922Y-18.199
X6.985Y30.404
X7.112Y17.272
X7.12Y4.839
X7.257Y-9.921
X7.518Y-30.48
X7.62Y-25.491
X7.622Y-0.897
X7.733Y0.022
X7.832Y-18.475
X7.95Y30.429
X8.029Y17.879
X8.101Y24.69
X8.217Y-16.63
X8.357Y25.832
X8.433Y-30.302
X8.521Y19.326
X8.546Y-25.473
X8.697Y12.117
X8.929Y-19.362
X9.025Y-9.078
X9.081Y-11.619
X9.144Y-2.54
X9.296Y8.763
X9.362Y30.29
X9.461Y21.569
X9.51Y20.178
X9.534Y22.86
X9.709Y9.725
X10.119Y0.041
X10.152Y6.896
X10.16Y-12.573
X10.16Y-19.812
X10.16Y-22.352
X10.281Y30.404
X10.333Y-18.203
X10.668Y-7.112
X11.024Y-21.59
X11.201Y-13.208
X11.225Y-0.698
X11.891Y1.482
X12.197Y-6.091
X12.371Y12.345
X12.628Y-17.87
X12.69Y6.144
X13.029Y10.136
X13.288Y-23.978
X13.335Y-17.145
X13.335Y-19.685
X14.478Y-13.335
X14.665Y-24.795
X14.732Y-2.54
X14.799Y-26.609
X14.808Y-20.091
X15.0Y-14.21
X15.541Y6.698
X15.875Y-21.602
X16.256Y6.096
X16.388Y-4.485
X16.891Y-13.696
X17.307Y-4.633
X17.45Y5.528
X17.604Y-22.401
X17.609Y-7.109
X17.734Y-16.912
X17.775Y7.108
X17.832Y-25.81
X18.169Y3.048
X18.169Y-5.199
X18.242Y-3.225
X18.247Y5.054
X18.415Y-23.495
X18.452Y7.741
X18.534Y-7.156
X18.885Y0.62
X19.304Y-8.636
X19.414Y-1.62
X19.426Y8.514
X19.493Y-0.697
X19.511Y1.389
X19.685Y25.021
X19.706Y-12.637
X20.235Y9.544
X20.516Y-13.774
X20.828Y-9.652
X21.082Y-12.827
X21.344Y0.559
X21.539Y9.621
X21.618Y-17.117
X21.664Y-13.896
X21.844Y-10.668
X21.86Y-0.724
X22.212Y1.049
X22.494Y9.721
X22.86Y-10.041
X22.875Y-0.595
X23.132Y1.158
X23.495Y-21.59
X23.788Y-0.752
X24.69Y-8.101
X24.892Y0.508
X25.334Y-2.861
X25.488Y8.249
X25.516Y7.323
X25.527Y2.741
X25.832Y-8.357
X26.029Y-5.092
X26.035Y-15.748
X26.154Y-19.753
X26.298Y-3.04
X26.416Y4.996
X26.477Y-6.314
X26.643Y3.09
X26.799Y5.911
X30.326Y-9.658
X30.327Y8.249
X30.404Y4.877
X30.404Y-6.985
X30.404Y-10.617
X30.429Y-7.95
X30.455Y5.994
X30.48Y1.016
X30.48Y-1.016
X30.48Y-5.258
X30.517Y7.342
X30.53Y3.194
X30.587Y2.269
X30.607Y-4.216
X34.091Y-0.011
T4
X-1.9Y-16.119
X-1.9Y-17.389
X-0.63Y-16.119
X-0.63Y-17.389
X0.64Y-16.119
X0.64Y-17.389
X1.91Y-16.119
X1.91Y-17.389
T5
X-17.389Y1.9
X-17.389Y0.63
X-17.389Y-0.64
X-17.389Y-1.91
X-16.119Y1.9
X-16.119Y0.63
X-16.119Y-0.64
X-16.119Y-1.91
X16.119Y1.91
X16.119Y0.64
X16.119Y-0.63
X16.119Y-1.9
X17.389Y1.91
X17.389Y0.64
X17.389Y-0.63
X17.389Y-1.9
T6
X-23.594Y-20.058
X-20.058Y-23.594
X20.058Y23.575
X23.594Y20.039
T7
X-28.248Y19.268
X-27.94Y-19.685
X-26.452Y21.064
X-26.452Y17.472
X-26.144Y-17.889
X-24.656Y22.86
X-24.656Y19.268
X-22.86Y24.656
X-22.86Y21.064
X-21.064Y26.452
X-21.064Y22.86
X-19.685Y-27.94
X-19.268Y28.248
X-19.268Y24.656
X-17.889Y-26.144
X-17.472Y26.452
X14.188Y-29.845
X15.984Y-28.049
X15.984Y-31.641
X17.78Y-29.845
X17.889Y26.144
X19.685Y27.94
X26.144Y17.889
X27.94Y19.685
X28.049Y-15.984
X29.845Y-14.188
X29.845Y-17.78
X31.641Y-15.984
T8
X20.955Y-26.67
X26.67Y-20.955
T9
X-29.845Y15.24
X-29.845Y-15.24
X-15.24Y29.845
X-15.24Y-29.845
X15.24Y29.845
X29.845Y15.24
T3
X-26.457Y-21.508G85X-25.962Y-21.013
G05
X-21.013Y-25.962G85X-21.508Y-26.457
G05
X21.013Y25.944G85X21.508Y26.439
G05
X26.457Y21.489G85X25.962Y20.994
G05
M30
