%TF.GenerationSoftware,KiCad,Pcbnew,10.0.1*%
%TF.CreationDate,2026-04-17T22:06:24-07:00*%
%TF.ProjectId,FreeEEG128-alpha,46726565-4545-4473-9132-382d616c7068,rev?*%
%TF.SameCoordinates,Original*%
%TF.FileFunction,Paste,Top*%
%TF.FilePolarity,Positive*%
%FSLAX46Y46*%
G04 Gerber Fmt 4.6, Leading zero omitted, Abs format (unit mm)*
G04 Created by KiCad (PCBNEW 10.0.1) date 2026-04-17 22:06:24*
%MOMM*%
%LPD*%
G01*
G04 APERTURE LIST*
G04 Aperture macros list*
%AMRoundRect*
0 Rectangle with rounded corners*
0 $1 Rounding radius*
0 $2 $3 $4 $5 $6 $7 $8 $9 X,Y pos of 4 corners*
0 Add a 4 corners polygon primitive as box body*
4,1,4,$2,$3,$4,$5,$6,$7,$8,$9,$2,$3,0*
0 Add four circle primitives for the rounded corners*
1,1,$1+$1,$2,$3*
1,1,$1+$1,$4,$5*
1,1,$1+$1,$6,$7*
1,1,$1+$1,$8,$9*
0 Add four rect primitives between the rounded corners*
20,1,$1+$1,$2,$3,$4,$5,0*
20,1,$1+$1,$4,$5,$6,$7,0*
20,1,$1+$1,$6,$7,$8,$9,0*
20,1,$1+$1,$8,$9,$2,$3,0*%
%AMRotRect*
0 Rectangle, with rotation*
0 The origin of the aperture is its center*
0 $1 length*
0 $2 width*
0 $3 Rotation angle, in degrees counterclockwise*
0 Add horizontal line*
21,1,$1,$2,0,0,$3*%
%AMFreePoly0*
4,1,19,0.152013,0.173193,0.186792,0.125324,0.191478,0.095739,0.191478,0.038978,0.173193,-0.017296,0.163437,-0.028720,0.028720,-0.163437,-0.024001,-0.190299,-0.038978,-0.191478,-0.095739,-0.191478,-0.152013,-0.173193,-0.186792,-0.125324,-0.191478,-0.095739,-0.191478,0.095739,-0.173193,0.152013,-0.125324,0.186792,-0.095739,0.191478,0.095739,0.191478,0.152013,0.173193,0.152013,0.173193,
$1*%
%AMFreePoly1*
4,1,21,0.053629,0.324361,0.065053,0.314604,0.163437,0.216219,0.190299,0.163498,0.191478,0.148522,0.191478,-0.148522,0.173193,-0.204796,0.163437,-0.216219,0.065053,-0.314604,0.012332,-0.341467,-0.002645,-0.342646,-0.095739,-0.342646,-0.152013,-0.324361,-0.186792,-0.276492,-0.191478,-0.246907,-0.191478,0.246907,-0.173193,0.303181,-0.125324,0.337960,-0.095739,0.342646,-0.002645,0.342646,
0.053629,0.324361,0.053629,0.324361,$1*%
%AMFreePoly2*
4,1,19,0.017296,0.173193,0.028720,0.163437,0.163437,0.028720,0.190299,-0.024001,0.191478,-0.038978,0.191478,-0.095739,0.173193,-0.152013,0.125324,-0.186792,0.095739,-0.191478,-0.095739,-0.191478,-0.152013,-0.173193,-0.186792,-0.125324,-0.191478,-0.095739,-0.191478,0.095739,-0.173193,0.152013,-0.125324,0.186792,-0.095739,0.191478,-0.038978,0.191478,0.017296,0.173193,0.017296,0.173193,
$1*%
%AMFreePoly3*
4,1,21,0.303181,0.173193,0.337960,0.125324,0.342646,0.095739,0.342646,0.002645,0.324361,-0.053629,0.314604,-0.065053,0.216219,-0.163437,0.163498,-0.190299,0.148522,-0.191478,-0.148522,-0.191478,-0.204796,-0.173193,-0.216219,-0.163437,-0.314604,-0.065053,-0.341467,-0.012332,-0.342646,0.002645,-0.342646,0.095739,-0.324361,0.152013,-0.276492,0.186792,-0.246907,0.191478,0.246907,0.191478,
0.303181,0.173193,0.303181,0.173193,$1*%
%AMFreePoly4*
4,1,25,0.243606,0.323103,0.248978,0.318179,0.318179,0.248978,0.342328,0.197191,0.342646,0.189911,0.342646,-0.189911,0.323103,-0.243606,0.318179,-0.248978,0.248978,-0.318179,0.197191,-0.342328,0.189911,-0.342646,-0.189911,-0.342646,-0.243606,-0.323103,-0.248978,-0.318179,-0.318179,-0.248978,-0.342328,-0.197191,-0.342646,-0.189911,-0.342646,0.189911,-0.323103,0.243606,-0.318179,0.248978,
-0.248978,0.318179,-0.197191,0.342328,-0.189911,0.342646,0.189911,0.342646,0.243606,0.323103,0.243606,0.323103,$1*%
%AMFreePoly5*
4,1,21,0.204796,0.173193,0.216219,0.163437,0.314604,0.065053,0.341467,0.012332,0.342646,-0.002645,0.342646,-0.095739,0.324361,-0.152013,0.276492,-0.186792,0.246907,-0.191478,-0.246907,-0.191478,-0.303181,-0.173193,-0.337960,-0.125324,-0.342646,-0.095739,-0.342646,-0.002645,-0.324361,0.053629,-0.314604,0.065053,-0.216219,0.163437,-0.163498,0.190299,-0.148522,0.191478,0.148522,0.191478,
0.204796,0.173193,0.204796,0.173193,$1*%
%AMFreePoly6*
4,1,19,0.152013,0.173193,0.186792,0.125324,0.191478,0.095739,0.191478,-0.095739,0.173193,-0.152013,0.125324,-0.186792,0.095739,-0.191478,0.038978,-0.191478,-0.017296,-0.173193,-0.028720,-0.163437,-0.163437,-0.028720,-0.190299,0.024001,-0.191478,0.038978,-0.191478,0.095739,-0.173193,0.152013,-0.125324,0.186792,-0.095739,0.191478,0.095739,0.191478,0.152013,0.173193,0.152013,0.173193,
$1*%
%AMFreePoly7*
4,1,21,0.152013,0.324361,0.186792,0.276492,0.191478,0.246907,0.191478,-0.246907,0.173193,-0.303181,0.125324,-0.337960,0.095739,-0.342646,0.002645,-0.342646,-0.053629,-0.324361,-0.065053,-0.314604,-0.163437,-0.216219,-0.190299,-0.163498,-0.191478,-0.148522,-0.191478,0.148522,-0.173193,0.204796,-0.163437,0.216219,-0.065053,0.314604,-0.012332,0.341467,0.002645,0.342646,0.095739,0.342646,
0.152013,0.324361,0.152013,0.324361,$1*%
%AMFreePoly8*
4,1,19,0.152013,0.173193,0.186792,0.125324,0.191478,0.095739,0.191478,-0.095739,0.173193,-0.152013,0.125324,-0.186792,0.095739,-0.191478,-0.095739,-0.191478,-0.152013,-0.173193,-0.186792,-0.125324,-0.191478,-0.095739,-0.191478,-0.038978,-0.173193,0.017296,-0.163437,0.028720,-0.028720,0.163437,0.024001,0.190299,0.038978,0.191478,0.095739,0.191478,0.152013,0.173193,0.152013,0.173193,
$1*%
%AMFreePoly9*
4,1,14,0.314644,0.085355,0.385355,0.014644,0.400000,-0.020711,0.400000,-0.050000,0.385355,-0.085355,0.350000,-0.100000,-0.350000,-0.100000,-0.385355,-0.085355,-0.400000,-0.050000,-0.400000,0.050000,-0.385355,0.085355,-0.350000,0.100000,0.279289,0.100000,0.314644,0.085355,0.314644,0.085355,$1*%
%AMFreePoly10*
4,1,14,0.385355,0.085355,0.400000,0.050000,0.400000,0.020711,0.385355,-0.014644,0.314644,-0.085355,0.279289,-0.100000,-0.350000,-0.100000,-0.385355,-0.085355,-0.400000,-0.050000,-0.400000,0.050000,-0.385355,0.085355,-0.350000,0.100000,0.350000,0.100000,0.385355,0.085355,0.385355,0.085355,$1*%
%AMFreePoly11*
4,1,14,0.085355,0.385355,0.100000,0.350000,0.100000,-0.350000,0.085355,-0.385355,0.050000,-0.400000,-0.050000,-0.400000,-0.085355,-0.385355,-0.100000,-0.350000,-0.100000,0.279289,-0.085355,0.314644,-0.014644,0.385355,0.020711,0.400000,0.050000,0.400000,0.085355,0.385355,0.085355,0.385355,$1*%
%AMFreePoly12*
4,1,14,0.014644,0.385355,0.085355,0.314644,0.100000,0.279289,0.100000,-0.350000,0.085355,-0.385355,0.050000,-0.400000,-0.050000,-0.400000,-0.085355,-0.385355,-0.100000,-0.350000,-0.100000,0.350000,-0.085355,0.385355,-0.050000,0.400000,-0.020711,0.400000,0.014644,0.385355,0.014644,0.385355,$1*%
%AMFreePoly13*
4,1,14,0.385355,0.085355,0.400000,0.050000,0.400000,-0.050000,0.385355,-0.085355,0.350000,-0.100000,-0.279289,-0.100000,-0.314644,-0.085355,-0.385355,-0.014644,-0.400000,0.020711,-0.400000,0.050000,-0.385355,0.085355,-0.350000,0.100000,0.350000,0.100000,0.385355,0.085355,0.385355,0.085355,$1*%
%AMFreePoly14*
4,1,14,0.385355,0.085355,0.400000,0.050000,0.400000,-0.050000,0.385355,-0.085355,0.350000,-0.100000,-0.350000,-0.100000,-0.385355,-0.085355,-0.400000,-0.050000,-0.400000,-0.020711,-0.385355,0.014644,-0.314644,0.085355,-0.279289,0.100000,0.350000,0.100000,0.385355,0.085355,0.385355,0.085355,$1*%
%AMFreePoly15*
4,1,14,0.085355,0.385355,0.100000,0.350000,0.100000,-0.279289,0.085355,-0.314644,0.014644,-0.385355,-0.020711,-0.400000,-0.050000,-0.400000,-0.085355,-0.385355,-0.100000,-0.350000,-0.100000,0.350000,-0.085355,0.385355,-0.050000,0.400000,0.050000,0.400000,0.085355,0.385355,0.085355,0.385355,$1*%
%AMFreePoly16*
4,1,14,0.085355,0.385355,0.100000,0.350000,0.100000,-0.350000,0.085355,-0.385355,0.050000,-0.400000,0.020711,-0.400000,-0.014644,-0.385355,-0.085355,-0.314644,-0.100000,-0.279289,-0.100000,0.350000,-0.085355,0.385355,-0.050000,0.400000,0.050000,0.400000,0.085355,0.385355,0.085355,0.385355,$1*%
G04 Aperture macros list end*
%ADD10RotRect,1.075000X0.250000X45.000000*%
%ADD11RotRect,0.250000X1.075000X45.000000*%
%ADD12RoundRect,0.147500X-0.226274X-0.017678X-0.017678X-0.226274X0.226274X0.017678X0.017678X0.226274X0*%
%ADD13RoundRect,0.147500X0.017678X-0.226274X0.226274X-0.017678X-0.017678X0.226274X-0.226274X0.017678X0*%
%ADD14RoundRect,0.218750X0.026517X-0.335876X0.335876X-0.026517X-0.026517X0.335876X-0.335876X0.026517X0*%
%ADD15RoundRect,0.147500X-0.017678X0.226274X-0.226274X0.017678X0.017678X-0.226274X0.226274X-0.017678X0*%
%ADD16RotRect,1.060000X0.650000X225.000000*%
%ADD17RotRect,2.280000X1.500000X135.000000*%
%ADD18RoundRect,0.147500X0.226274X0.017678X0.017678X0.226274X-0.226274X-0.017678X-0.017678X-0.226274X0*%
%ADD19RoundRect,0.218750X-0.335876X-0.026517X-0.026517X-0.335876X0.335876X0.026517X0.026517X0.335876X0*%
%ADD20RotRect,0.400000X1.350000X135.000000*%
%ADD21RotRect,1.500000X1.900000X135.000000*%
%ADD22RotRect,0.900000X1.700000X225.000000*%
%ADD23RotRect,1.750000X1.800000X225.000000*%
%ADD24R,2.000000X3.500000*%
%ADD25RotRect,0.900000X1.700000X45.000000*%
%ADD26RoundRect,0.218750X0.335876X0.026517X0.026517X0.335876X-0.335876X-0.026517X-0.026517X-0.335876X0*%
%ADD27RotRect,1.500000X0.600000X135.000000*%
%ADD28RoundRect,0.140000X-0.170000X0.140000X-0.170000X-0.140000X0.170000X-0.140000X0.170000X0.140000X0*%
%ADD29RoundRect,0.140000X0.140000X0.170000X-0.140000X0.170000X-0.140000X-0.170000X0.140000X-0.170000X0*%
%ADD30RoundRect,0.140000X-0.140000X-0.170000X0.140000X-0.170000X0.140000X0.170000X-0.140000X0.170000X0*%
%ADD31FreePoly0,180.000000*%
%ADD32FreePoly1,180.000000*%
%ADD33FreePoly2,180.000000*%
%ADD34FreePoly3,180.000000*%
%ADD35FreePoly4,180.000000*%
%ADD36FreePoly5,180.000000*%
%ADD37FreePoly6,180.000000*%
%ADD38FreePoly7,180.000000*%
%ADD39FreePoly8,180.000000*%
%ADD40FreePoly9,180.000000*%
%ADD41RoundRect,0.050000X0.350000X0.050000X-0.350000X0.050000X-0.350000X-0.050000X0.350000X-0.050000X0*%
%ADD42FreePoly10,180.000000*%
%ADD43FreePoly11,180.000000*%
%ADD44RoundRect,0.050000X0.050000X0.350000X-0.050000X0.350000X-0.050000X-0.350000X0.050000X-0.350000X0*%
%ADD45FreePoly12,180.000000*%
%ADD46FreePoly13,180.000000*%
%ADD47FreePoly14,180.000000*%
%ADD48FreePoly15,180.000000*%
%ADD49FreePoly16,180.000000*%
%ADD50RoundRect,0.140000X0.170000X-0.140000X0.170000X0.140000X-0.170000X0.140000X-0.170000X-0.140000X0*%
%ADD51R,2.400000X0.740000*%
%ADD52FreePoly0,270.000000*%
%ADD53FreePoly1,270.000000*%
%ADD54FreePoly2,270.000000*%
%ADD55FreePoly3,270.000000*%
%ADD56FreePoly4,270.000000*%
%ADD57FreePoly5,270.000000*%
%ADD58FreePoly6,270.000000*%
%ADD59FreePoly7,270.000000*%
%ADD60FreePoly8,270.000000*%
%ADD61FreePoly9,270.000000*%
%ADD62RoundRect,0.050000X-0.050000X0.350000X-0.050000X-0.350000X0.050000X-0.350000X0.050000X0.350000X0*%
%ADD63FreePoly10,270.000000*%
%ADD64FreePoly11,270.000000*%
%ADD65RoundRect,0.050000X-0.350000X0.050000X-0.350000X-0.050000X0.350000X-0.050000X0.350000X0.050000X0*%
%ADD66FreePoly12,270.000000*%
%ADD67FreePoly13,270.000000*%
%ADD68FreePoly14,270.000000*%
%ADD69FreePoly15,270.000000*%
%ADD70FreePoly16,270.000000*%
%ADD71RoundRect,0.135000X-0.185000X0.135000X-0.185000X-0.135000X0.185000X-0.135000X0.185000X0.135000X0*%
%ADD72RoundRect,0.225000X0.335876X0.017678X0.017678X0.335876X-0.335876X-0.017678X-0.017678X-0.335876X0*%
%ADD73FreePoly0,0.000000*%
%ADD74FreePoly1,0.000000*%
%ADD75FreePoly2,0.000000*%
%ADD76FreePoly3,0.000000*%
%ADD77FreePoly4,0.000000*%
%ADD78FreePoly5,0.000000*%
%ADD79FreePoly6,0.000000*%
%ADD80FreePoly7,0.000000*%
%ADD81FreePoly8,0.000000*%
%ADD82FreePoly9,0.000000*%
%ADD83RoundRect,0.050000X-0.350000X-0.050000X0.350000X-0.050000X0.350000X0.050000X-0.350000X0.050000X0*%
%ADD84FreePoly10,0.000000*%
%ADD85FreePoly11,0.000000*%
%ADD86RoundRect,0.050000X-0.050000X-0.350000X0.050000X-0.350000X0.050000X0.350000X-0.050000X0.350000X0*%
%ADD87FreePoly12,0.000000*%
%ADD88FreePoly13,0.000000*%
%ADD89FreePoly14,0.000000*%
%ADD90FreePoly15,0.000000*%
%ADD91FreePoly16,0.000000*%
%ADD92R,1.560000X0.650000*%
%ADD93FreePoly0,90.000000*%
%ADD94FreePoly1,90.000000*%
%ADD95FreePoly2,90.000000*%
%ADD96FreePoly3,90.000000*%
%ADD97FreePoly4,90.000000*%
%ADD98FreePoly5,90.000000*%
%ADD99FreePoly6,90.000000*%
%ADD100FreePoly7,90.000000*%
%ADD101FreePoly8,90.000000*%
%ADD102FreePoly9,90.000000*%
%ADD103RoundRect,0.050000X0.050000X-0.350000X0.050000X0.350000X-0.050000X0.350000X-0.050000X-0.350000X0*%
%ADD104FreePoly10,90.000000*%
%ADD105FreePoly11,90.000000*%
%ADD106RoundRect,0.050000X0.350000X-0.050000X0.350000X0.050000X-0.350000X0.050000X-0.350000X-0.050000X0*%
%ADD107FreePoly12,90.000000*%
%ADD108FreePoly13,90.000000*%
%ADD109FreePoly14,90.000000*%
%ADD110FreePoly15,90.000000*%
%ADD111FreePoly16,90.000000*%
%ADD112RoundRect,0.225000X-0.017678X0.335876X-0.335876X0.017678X0.017678X-0.335876X0.335876X-0.017678X0*%
%ADD113RoundRect,0.150000X0.468458X-0.256326X-0.256326X0.468458X-0.468458X0.256326X0.256326X-0.468458X0*%
%ADD114R,0.740000X2.400000*%
%ADD115RoundRect,0.135000X0.135000X0.185000X-0.135000X0.185000X-0.135000X-0.185000X0.135000X-0.185000X0*%
G04 APERTURE END LIST*
D10*
%TO.C,U1*%
X17431002Y-19506752D03*
X17784556Y-19860305D03*
X18138109Y-20213858D03*
X18491662Y-20567412D03*
D11*
X19499290Y-20213858D03*
X19852843Y-19860305D03*
X20206396Y-19506752D03*
D10*
X20559950Y-18499124D03*
X20206396Y-18145571D03*
X19852843Y-17792018D03*
X19499290Y-17438464D03*
D11*
X18491662Y-17792018D03*
X18138109Y-18145571D03*
X17784556Y-18499124D03*
%TD*%
D12*
%TO.C,C38*%
X-24599947Y15963947D03*
X-23914053Y15278053D03*
%TD*%
D13*
%TO.C,C66*%
X-9512347Y-16014747D03*
X-8826453Y-15328853D03*
%TD*%
D14*
%TO.C,C16*%
X9730153Y13463953D03*
X10843847Y14577647D03*
%TD*%
D13*
%TO.C,R84*%
X18707053Y-25107947D03*
X19392947Y-24422053D03*
%TD*%
%TO.C,R113*%
X-23202947Y-25107947D03*
X-22517053Y-24422053D03*
%TD*%
D15*
%TO.C,C39*%
X-21882053Y-20612053D03*
X-22567947Y-21297947D03*
%TD*%
%TO.C,C64*%
X-7505653Y-11493453D03*
X-8191547Y-12179347D03*
%TD*%
D16*
%TO.C,U6*%
X12244569Y10887094D03*
X11572817Y11558845D03*
X10901066Y12230597D03*
X9345431Y10674962D03*
X10688934Y9331459D03*
%TD*%
D13*
%TO.C,C1*%
X24422053Y-19392947D03*
X25107947Y-18707053D03*
%TD*%
D17*
%TO.C,Y2*%
X-10126969Y-12813975D03*
X-12813975Y-10126969D03*
X-14511031Y-11824025D03*
X-11824025Y-14511031D03*
%TD*%
D18*
%TO.C,C67*%
X-16421053Y-10020347D03*
X-17106947Y-9334453D03*
%TD*%
D19*
%TO.C,C68*%
X19788553Y20953047D03*
X20902247Y19839353D03*
%TD*%
D20*
%TO.C,J103*%
X22745095Y20887874D03*
X22285476Y21347493D03*
X21825856Y21807112D03*
X21366237Y22266732D03*
X20906618Y22726351D03*
D21*
X24442151Y23009194D03*
X23027938Y24423407D03*
%TD*%
D22*
%TO.C,SW1*%
X22157082Y-25467918D03*
X19752918Y-27872082D03*
%TD*%
D23*
%TO.C,Y1*%
X-7340600Y-7391400D03*
X-9638698Y-9689498D03*
%TD*%
D24*
%TO.C,U7*%
X2100000Y-3250000D03*
X2100000Y3250000D03*
X-2100000Y3250000D03*
X-2100000Y-3250000D03*
%TD*%
D15*
%TO.C,C40*%
X-20612053Y-21882053D03*
X-21297947Y-22567947D03*
%TD*%
D13*
%TO.C,C2*%
X19922529Y-21885885D03*
X20608423Y-21199991D03*
%TD*%
D15*
%TO.C,C65*%
X-8267653Y-10756853D03*
X-8953547Y-11442747D03*
%TD*%
D25*
%TO.C,SW2*%
X25467918Y-22157082D03*
X27872082Y-19752918D03*
%TD*%
D15*
%TO.C,C3*%
X21983747Y-19824653D03*
X21297853Y-20510547D03*
%TD*%
D18*
%TO.C,R117*%
X-11468053Y-8851947D03*
X-12153947Y-8166053D03*
%TD*%
D26*
%TO.C,C17*%
X9446847Y7684181D03*
X8333153Y8797875D03*
%TD*%
D13*
%TO.C,R114*%
X-25107947Y-23202947D03*
X-24422053Y-22517053D03*
%TD*%
D27*
%TO.C,U16*%
X-16365043Y10078864D03*
X-15467017Y10976889D03*
X-14568992Y11874915D03*
X-13670966Y12772941D03*
X-12772941Y13670966D03*
X-11874915Y14568992D03*
X-10976889Y15467017D03*
X-10078864Y16365043D03*
X-16654957Y22941136D03*
X-17552983Y22043111D03*
X-18451008Y21145085D03*
X-19349034Y20247059D03*
X-20247059Y19349034D03*
X-21145085Y18451008D03*
X-22043111Y17552983D03*
X-22941136Y16654957D03*
%TD*%
D13*
%TO.C,C37*%
X-15074947Y9182053D03*
X-14389053Y9867947D03*
%TD*%
D28*
%TO.C,C81*%
X19304000Y-6632000D03*
X19304000Y-7592000D03*
%TD*%
D29*
%TO.C,C5*%
X3528000Y-19304000D03*
X2568000Y-19304000D03*
%TD*%
%TO.C,C79*%
X21308000Y1524000D03*
X20348000Y1524000D03*
%TD*%
%TO.C,C82*%
X21308000Y-8636000D03*
X20348000Y-8636000D03*
%TD*%
D30*
%TO.C,C91*%
X-21308000Y-1524000D03*
X-20348000Y-1524000D03*
%TD*%
D31*
%TO.C,U113*%
X23947500Y3992500D03*
D32*
X23947500Y4655000D03*
X23947500Y5505000D03*
D33*
X23947500Y6167500D03*
D34*
X23285000Y3992500D03*
D35*
X23285000Y4655000D03*
X23285000Y5505000D03*
D36*
X23285000Y6167500D03*
D34*
X22435000Y3992500D03*
D35*
X22435000Y4655000D03*
X22435000Y5505000D03*
D36*
X22435000Y6167500D03*
D37*
X21772500Y3992500D03*
D38*
X21772500Y4655000D03*
X21772500Y5505000D03*
D39*
X21772500Y6167500D03*
D40*
X24810000Y3680000D03*
D41*
X24810000Y4080000D03*
X24810000Y4480000D03*
X24810000Y4880000D03*
X24810000Y5280000D03*
X24810000Y5680000D03*
X24810000Y6080000D03*
D42*
X24810000Y6480000D03*
D43*
X24260000Y7030000D03*
D44*
X23860000Y7030000D03*
X23460000Y7030000D03*
X23060000Y7030000D03*
X22660000Y7030000D03*
X22260000Y7030000D03*
X21860000Y7030000D03*
D45*
X21460000Y7030000D03*
D46*
X20910000Y6480000D03*
D41*
X20910000Y6080000D03*
X20910000Y5680000D03*
X20910000Y5280000D03*
X20910000Y4880000D03*
X20910000Y4480000D03*
X20910000Y4080000D03*
D47*
X20910000Y3680000D03*
D48*
X21460000Y3130000D03*
D44*
X21860000Y3130000D03*
X22260000Y3130000D03*
X22660000Y3130000D03*
X23060000Y3130000D03*
X23460000Y3130000D03*
X23860000Y3130000D03*
D49*
X24260000Y3130000D03*
%TD*%
D50*
%TO.C,C90*%
X-19304000Y-3528000D03*
X-19304000Y-2568000D03*
%TD*%
D51*
%TO.C,J207*%
X28530000Y12065000D03*
X32430000Y12065000D03*
X28530000Y10795000D03*
X32430000Y10795000D03*
X28530000Y9525000D03*
X32430000Y9525000D03*
X28530000Y8255000D03*
X32430000Y8255000D03*
X28530000Y6985000D03*
X32430000Y6985000D03*
X28530000Y5715000D03*
X32430000Y5715000D03*
X28530000Y4445000D03*
X32430000Y4445000D03*
X28530000Y3175000D03*
X32430000Y3175000D03*
X28530000Y1905000D03*
X32430000Y1905000D03*
X28530000Y635000D03*
X32430000Y635000D03*
X28530000Y-635000D03*
X32430000Y-635000D03*
X28530000Y-1905000D03*
X32430000Y-1905000D03*
X28530000Y-3175000D03*
X32430000Y-3175000D03*
X28530000Y-4445000D03*
X32430000Y-4445000D03*
X28530000Y-5715000D03*
X32430000Y-5715000D03*
X28530000Y-6985000D03*
X32430000Y-6985000D03*
X28530000Y-8255000D03*
X32430000Y-8255000D03*
X28530000Y-9525000D03*
X32430000Y-9525000D03*
X28530000Y-10795000D03*
X32430000Y-10795000D03*
X28530000Y-12065000D03*
X32430000Y-12065000D03*
%TD*%
D30*
%TO.C,C8*%
X6632000Y19304000D03*
X7592000Y19304000D03*
%TD*%
%TO.C,C92*%
X-21308000Y1524000D03*
X-20348000Y1524000D03*
%TD*%
%TO.C,C94*%
X-21308000Y8636000D03*
X-20348000Y8636000D03*
%TD*%
D52*
%TO.C,U109*%
X-3992500Y23947500D03*
D53*
X-4655000Y23947500D03*
X-5505000Y23947500D03*
D54*
X-6167500Y23947500D03*
D55*
X-3992500Y23285000D03*
D56*
X-4655000Y23285000D03*
X-5505000Y23285000D03*
D57*
X-6167500Y23285000D03*
D55*
X-3992500Y22435000D03*
D56*
X-4655000Y22435000D03*
X-5505000Y22435000D03*
D57*
X-6167500Y22435000D03*
D58*
X-3992500Y21772500D03*
D59*
X-4655000Y21772500D03*
X-5505000Y21772500D03*
D60*
X-6167500Y21772500D03*
D61*
X-3680000Y24810000D03*
D62*
X-4080000Y24810000D03*
X-4480000Y24810000D03*
X-4880000Y24810000D03*
X-5280000Y24810000D03*
X-5680000Y24810000D03*
X-6080000Y24810000D03*
D63*
X-6480000Y24810000D03*
D64*
X-7030000Y24260000D03*
D65*
X-7030000Y23860000D03*
X-7030000Y23460000D03*
X-7030000Y23060000D03*
X-7030000Y22660000D03*
X-7030000Y22260000D03*
X-7030000Y21860000D03*
D66*
X-7030000Y21460000D03*
D67*
X-6480000Y20910000D03*
D62*
X-6080000Y20910000D03*
X-5680000Y20910000D03*
X-5280000Y20910000D03*
X-4880000Y20910000D03*
X-4480000Y20910000D03*
X-4080000Y20910000D03*
D68*
X-3680000Y20910000D03*
D69*
X-3130000Y21460000D03*
D65*
X-3130000Y21860000D03*
X-3130000Y22260000D03*
X-3130000Y22660000D03*
X-3130000Y23060000D03*
X-3130000Y23460000D03*
X-3130000Y23860000D03*
D70*
X-3130000Y24260000D03*
%TD*%
D30*
%TO.C,C102*%
X-3528000Y19304000D03*
X-2568000Y19304000D03*
%TD*%
D51*
%TO.C,J203*%
X-28530000Y-12065000D03*
X-32430000Y-12065000D03*
X-28530000Y-10795000D03*
X-32430000Y-10795000D03*
X-28530000Y-9525000D03*
X-32430000Y-9525000D03*
X-28530000Y-8255000D03*
X-32430000Y-8255000D03*
X-28530000Y-6985000D03*
X-32430000Y-6985000D03*
X-28530000Y-5715000D03*
X-32430000Y-5715000D03*
X-28530000Y-4445000D03*
X-32430000Y-4445000D03*
X-28530000Y-3175000D03*
X-32430000Y-3175000D03*
X-28530000Y-1905000D03*
X-32430000Y-1905000D03*
X-28530000Y-635000D03*
X-32430000Y-635000D03*
X-28530000Y635000D03*
X-32430000Y635000D03*
X-28530000Y1905000D03*
X-32430000Y1905000D03*
X-28530000Y3175000D03*
X-32430000Y3175000D03*
X-28530000Y4445000D03*
X-32430000Y4445000D03*
X-28530000Y5715000D03*
X-32430000Y5715000D03*
X-28530000Y6985000D03*
X-32430000Y6985000D03*
X-28530000Y8255000D03*
X-32430000Y8255000D03*
X-28530000Y9525000D03*
X-32430000Y9525000D03*
X-28530000Y10795000D03*
X-32430000Y10795000D03*
X-28530000Y12065000D03*
X-32430000Y12065000D03*
%TD*%
D28*
%TO.C,C25*%
X3048000Y18260000D03*
X3048000Y17300000D03*
%TD*%
%TO.C,C101*%
X-8636000Y21308000D03*
X-8636000Y20348000D03*
%TD*%
D71*
%TO.C,R112*%
X-4064000Y510000D03*
X-4064000Y-510000D03*
%TD*%
D50*
%TO.C,C22*%
X-1524000Y-21308000D03*
X-1524000Y-20348000D03*
%TD*%
%TO.C,C6*%
X1524000Y-21308000D03*
X1524000Y-20348000D03*
%TD*%
D28*
%TO.C,C9*%
X8636000Y21308000D03*
X8636000Y20348000D03*
%TD*%
%TO.C,C78*%
X19304000Y3528000D03*
X19304000Y2568000D03*
%TD*%
%TO.C,C103*%
X-1524000Y21308000D03*
X-1524000Y20348000D03*
%TD*%
D31*
%TO.C,U114*%
X23947500Y-6167500D03*
D32*
X23947500Y-5505000D03*
X23947500Y-4655000D03*
D33*
X23947500Y-3992500D03*
D34*
X23285000Y-6167500D03*
D35*
X23285000Y-5505000D03*
X23285000Y-4655000D03*
D36*
X23285000Y-3992500D03*
D34*
X22435000Y-6167500D03*
D35*
X22435000Y-5505000D03*
X22435000Y-4655000D03*
D36*
X22435000Y-3992500D03*
D37*
X21772500Y-6167500D03*
D38*
X21772500Y-5505000D03*
X21772500Y-4655000D03*
D39*
X21772500Y-3992500D03*
D40*
X24810000Y-6480000D03*
D41*
X24810000Y-6080000D03*
X24810000Y-5680000D03*
X24810000Y-5280000D03*
X24810000Y-4880000D03*
X24810000Y-4480000D03*
X24810000Y-4080000D03*
D42*
X24810000Y-3680000D03*
D43*
X24260000Y-3130000D03*
D44*
X23860000Y-3130000D03*
X23460000Y-3130000D03*
X23060000Y-3130000D03*
X22660000Y-3130000D03*
X22260000Y-3130000D03*
X21860000Y-3130000D03*
D45*
X21460000Y-3130000D03*
D46*
X20910000Y-3680000D03*
D41*
X20910000Y-4080000D03*
X20910000Y-4480000D03*
X20910000Y-4880000D03*
X20910000Y-5280000D03*
X20910000Y-5680000D03*
X20910000Y-6080000D03*
D47*
X20910000Y-6480000D03*
D48*
X21460000Y-7030000D03*
D44*
X21860000Y-7030000D03*
X22260000Y-7030000D03*
X22660000Y-7030000D03*
X23060000Y-7030000D03*
X23460000Y-7030000D03*
X23860000Y-7030000D03*
D49*
X24260000Y-7030000D03*
%TD*%
D50*
%TO.C,C93*%
X-19304000Y6632000D03*
X-19304000Y7592000D03*
%TD*%
D72*
%TO.C,C19*%
X7406008Y-8396608D03*
X6309992Y-7300592D03*
%TD*%
D73*
%TO.C,U105*%
X-23947500Y-3992500D03*
D74*
X-23947500Y-4655000D03*
X-23947500Y-5505000D03*
D75*
X-23947500Y-6167500D03*
D76*
X-23285000Y-3992500D03*
D77*
X-23285000Y-4655000D03*
X-23285000Y-5505000D03*
D78*
X-23285000Y-6167500D03*
D76*
X-22435000Y-3992500D03*
D77*
X-22435000Y-4655000D03*
X-22435000Y-5505000D03*
D78*
X-22435000Y-6167500D03*
D79*
X-21772500Y-3992500D03*
D80*
X-21772500Y-4655000D03*
X-21772500Y-5505000D03*
D81*
X-21772500Y-6167500D03*
D82*
X-24810000Y-3680000D03*
D83*
X-24810000Y-4080000D03*
X-24810000Y-4480000D03*
X-24810000Y-4880000D03*
X-24810000Y-5280000D03*
X-24810000Y-5680000D03*
X-24810000Y-6080000D03*
D84*
X-24810000Y-6480000D03*
D85*
X-24260000Y-7030000D03*
D86*
X-23860000Y-7030000D03*
X-23460000Y-7030000D03*
X-23060000Y-7030000D03*
X-22660000Y-7030000D03*
X-22260000Y-7030000D03*
X-21860000Y-7030000D03*
D87*
X-21460000Y-7030000D03*
D88*
X-20910000Y-6480000D03*
D83*
X-20910000Y-6080000D03*
X-20910000Y-5680000D03*
X-20910000Y-5280000D03*
X-20910000Y-4880000D03*
X-20910000Y-4480000D03*
X-20910000Y-4080000D03*
D89*
X-20910000Y-3680000D03*
D90*
X-21460000Y-3130000D03*
D86*
X-21860000Y-3130000D03*
X-22260000Y-3130000D03*
X-22660000Y-3130000D03*
X-23060000Y-3130000D03*
X-23460000Y-3130000D03*
X-23860000Y-3130000D03*
D91*
X-24260000Y-3130000D03*
%TD*%
D50*
%TO.C,C21*%
X3048000Y15268000D03*
X3048000Y16228000D03*
%TD*%
D30*
%TO.C,C89*%
X-21308000Y-8636000D03*
X-20348000Y-8636000D03*
%TD*%
D92*
%TO.C,U2*%
X-1350000Y17714000D03*
X-1350000Y16764000D03*
X-1350000Y15814000D03*
X1350000Y15814000D03*
X1350000Y17714000D03*
%TD*%
D50*
%TO.C,C24*%
X-8636000Y-21308000D03*
X-8636000Y-20348000D03*
%TD*%
D93*
%TO.C,U102*%
X-6167500Y-23947500D03*
D94*
X-5505000Y-23947500D03*
X-4655000Y-23947500D03*
D95*
X-3992500Y-23947500D03*
D96*
X-6167500Y-23285000D03*
D97*
X-5505000Y-23285000D03*
X-4655000Y-23285000D03*
D98*
X-3992500Y-23285000D03*
D96*
X-6167500Y-22435000D03*
D97*
X-5505000Y-22435000D03*
X-4655000Y-22435000D03*
D98*
X-3992500Y-22435000D03*
D99*
X-6167500Y-21772500D03*
D100*
X-5505000Y-21772500D03*
X-4655000Y-21772500D03*
D101*
X-3992500Y-21772500D03*
D102*
X-6480000Y-24810000D03*
D103*
X-6080000Y-24810000D03*
X-5680000Y-24810000D03*
X-5280000Y-24810000D03*
X-4880000Y-24810000D03*
X-4480000Y-24810000D03*
X-4080000Y-24810000D03*
D104*
X-3680000Y-24810000D03*
D105*
X-3130000Y-24260000D03*
D106*
X-3130000Y-23860000D03*
X-3130000Y-23460000D03*
X-3130000Y-23060000D03*
X-3130000Y-22660000D03*
X-3130000Y-22260000D03*
X-3130000Y-21860000D03*
D107*
X-3130000Y-21460000D03*
D108*
X-3680000Y-20910000D03*
D103*
X-4080000Y-20910000D03*
X-4480000Y-20910000D03*
X-4880000Y-20910000D03*
X-5280000Y-20910000D03*
X-5680000Y-20910000D03*
X-6080000Y-20910000D03*
D109*
X-6480000Y-20910000D03*
D110*
X-7030000Y-21460000D03*
D106*
X-7030000Y-21860000D03*
X-7030000Y-22260000D03*
X-7030000Y-22660000D03*
X-7030000Y-23060000D03*
X-7030000Y-23460000D03*
X-7030000Y-23860000D03*
D111*
X-7030000Y-24260000D03*
%TD*%
D112*
%TO.C,C18*%
X13197208Y-11059792D03*
X12101192Y-12155808D03*
%TD*%
D71*
%TO.C,R110*%
X12192000Y-7110000D03*
X12192000Y-8130000D03*
%TD*%
D113*
%TO.C,U22*%
X10343383Y-11686885D03*
X11015134Y-11015134D03*
X11686885Y-10343383D03*
X10078217Y-8734715D03*
X8734715Y-10078217D03*
%TD*%
D29*
%TO.C,C23*%
X-6632000Y-19304000D03*
X-7592000Y-19304000D03*
%TD*%
D114*
%TO.C,J201*%
X12065000Y-28530000D03*
X12065000Y-32430000D03*
X10795000Y-28530000D03*
X10795000Y-32430000D03*
X9525000Y-28530000D03*
X9525000Y-32430000D03*
X8255000Y-28530000D03*
X8255000Y-32430000D03*
X6985000Y-28530000D03*
X6985000Y-32430000D03*
X5715000Y-28530000D03*
X5715000Y-32430000D03*
X4445000Y-28530000D03*
X4445000Y-32430000D03*
X3175000Y-28530000D03*
X3175000Y-32430000D03*
X1905000Y-28530000D03*
X1905000Y-32430000D03*
X635000Y-28530000D03*
X635000Y-32430000D03*
X-635000Y-28530000D03*
X-635000Y-32430000D03*
X-1905000Y-28530000D03*
X-1905000Y-32430000D03*
X-3175000Y-28530000D03*
X-3175000Y-32430000D03*
X-4445000Y-28530000D03*
X-4445000Y-32430000D03*
X-5715000Y-28530000D03*
X-5715000Y-32430000D03*
X-6985000Y-28530000D03*
X-6985000Y-32430000D03*
X-8255000Y-28530000D03*
X-8255000Y-32430000D03*
X-9525000Y-28530000D03*
X-9525000Y-32430000D03*
X-10795000Y-28530000D03*
X-10795000Y-32430000D03*
X-12065000Y-28530000D03*
X-12065000Y-32430000D03*
%TD*%
D50*
%TO.C,C4*%
X8636000Y-21308000D03*
X8636000Y-20348000D03*
%TD*%
D29*
%TO.C,C77*%
X21308000Y8636000D03*
X20348000Y8636000D03*
%TD*%
D114*
%TO.C,J205*%
X-12065000Y28530000D03*
X-12065000Y32430000D03*
X-10795000Y28530000D03*
X-10795000Y32430000D03*
X-9525000Y28530000D03*
X-9525000Y32430000D03*
X-8255000Y28530000D03*
X-8255000Y32430000D03*
X-6985000Y28530000D03*
X-6985000Y32430000D03*
X-5715000Y28530000D03*
X-5715000Y32430000D03*
X-4445000Y28530000D03*
X-4445000Y32430000D03*
X-3175000Y28530000D03*
X-3175000Y32430000D03*
X-1905000Y28530000D03*
X-1905000Y32430000D03*
X-635000Y28530000D03*
X-635000Y32430000D03*
X635000Y28530000D03*
X635000Y32430000D03*
X1905000Y28530000D03*
X1905000Y32430000D03*
X3175000Y28530000D03*
X3175000Y32430000D03*
X4445000Y28530000D03*
X4445000Y32430000D03*
X5715000Y28530000D03*
X5715000Y32430000D03*
X6985000Y28530000D03*
X6985000Y32430000D03*
X8255000Y28530000D03*
X8255000Y32430000D03*
X9525000Y28530000D03*
X9525000Y32430000D03*
X10795000Y28530000D03*
X10795000Y32430000D03*
X12065000Y28530000D03*
X12065000Y32430000D03*
%TD*%
D73*
%TO.C,U106*%
X-23947500Y6167500D03*
D74*
X-23947500Y5505000D03*
X-23947500Y4655000D03*
D75*
X-23947500Y3992500D03*
D76*
X-23285000Y6167500D03*
D77*
X-23285000Y5505000D03*
X-23285000Y4655000D03*
D78*
X-23285000Y3992500D03*
D76*
X-22435000Y6167500D03*
D77*
X-22435000Y5505000D03*
X-22435000Y4655000D03*
D78*
X-22435000Y3992500D03*
D79*
X-21772500Y6167500D03*
D80*
X-21772500Y5505000D03*
X-21772500Y4655000D03*
D81*
X-21772500Y3992500D03*
D82*
X-24810000Y6480000D03*
D83*
X-24810000Y6080000D03*
X-24810000Y5680000D03*
X-24810000Y5280000D03*
X-24810000Y4880000D03*
X-24810000Y4480000D03*
X-24810000Y4080000D03*
D84*
X-24810000Y3680000D03*
D85*
X-24260000Y3130000D03*
D86*
X-23860000Y3130000D03*
X-23460000Y3130000D03*
X-23060000Y3130000D03*
X-22660000Y3130000D03*
X-22260000Y3130000D03*
X-21860000Y3130000D03*
D87*
X-21460000Y3130000D03*
D88*
X-20910000Y3680000D03*
D83*
X-20910000Y4080000D03*
X-20910000Y4480000D03*
X-20910000Y4880000D03*
X-20910000Y5280000D03*
X-20910000Y5680000D03*
X-20910000Y6080000D03*
D89*
X-20910000Y6480000D03*
D90*
X-21460000Y7030000D03*
D86*
X-21860000Y7030000D03*
X-22260000Y7030000D03*
X-22660000Y7030000D03*
X-23060000Y7030000D03*
X-23460000Y7030000D03*
X-23860000Y7030000D03*
D91*
X-24260000Y7030000D03*
%TD*%
D28*
%TO.C,C7*%
X1524000Y21308000D03*
X1524000Y20348000D03*
%TD*%
%TO.C,C20*%
X-3048000Y17752000D03*
X-3048000Y16792000D03*
%TD*%
D52*
%TO.C,U110*%
X6167500Y23947500D03*
D53*
X5505000Y23947500D03*
X4655000Y23947500D03*
D54*
X3992500Y23947500D03*
D55*
X6167500Y23285000D03*
D56*
X5505000Y23285000D03*
X4655000Y23285000D03*
D57*
X3992500Y23285000D03*
D55*
X6167500Y22435000D03*
D56*
X5505000Y22435000D03*
X4655000Y22435000D03*
D57*
X3992500Y22435000D03*
D58*
X6167500Y21772500D03*
D59*
X5505000Y21772500D03*
X4655000Y21772500D03*
D60*
X3992500Y21772500D03*
D61*
X6480000Y24810000D03*
D62*
X6080000Y24810000D03*
X5680000Y24810000D03*
X5280000Y24810000D03*
X4880000Y24810000D03*
X4480000Y24810000D03*
X4080000Y24810000D03*
D63*
X3680000Y24810000D03*
D64*
X3130000Y24260000D03*
D65*
X3130000Y23860000D03*
X3130000Y23460000D03*
X3130000Y23060000D03*
X3130000Y22660000D03*
X3130000Y22260000D03*
X3130000Y21860000D03*
D66*
X3130000Y21460000D03*
D67*
X3680000Y20910000D03*
D62*
X4080000Y20910000D03*
X4480000Y20910000D03*
X4880000Y20910000D03*
X5280000Y20910000D03*
X5680000Y20910000D03*
X6080000Y20910000D03*
D68*
X6480000Y20910000D03*
D69*
X7030000Y21460000D03*
D65*
X7030000Y21860000D03*
X7030000Y22260000D03*
X7030000Y22660000D03*
X7030000Y23060000D03*
X7030000Y23460000D03*
X7030000Y23860000D03*
D70*
X7030000Y24260000D03*
%TD*%
D72*
%TO.C,C76*%
X8472808Y-7329808D03*
X7376792Y-6233792D03*
%TD*%
D93*
%TO.C,U101*%
X3992500Y-23947500D03*
D94*
X4655000Y-23947500D03*
X5505000Y-23947500D03*
D95*
X6167500Y-23947500D03*
D96*
X3992500Y-23285000D03*
D97*
X4655000Y-23285000D03*
X5505000Y-23285000D03*
D98*
X6167500Y-23285000D03*
D96*
X3992500Y-22435000D03*
D97*
X4655000Y-22435000D03*
X5505000Y-22435000D03*
D98*
X6167500Y-22435000D03*
D99*
X3992500Y-21772500D03*
D100*
X4655000Y-21772500D03*
X5505000Y-21772500D03*
D101*
X6167500Y-21772500D03*
D102*
X3680000Y-24810000D03*
D103*
X4080000Y-24810000D03*
X4480000Y-24810000D03*
X4880000Y-24810000D03*
X5280000Y-24810000D03*
X5680000Y-24810000D03*
X6080000Y-24810000D03*
D104*
X6480000Y-24810000D03*
D105*
X7030000Y-24260000D03*
D106*
X7030000Y-23860000D03*
X7030000Y-23460000D03*
X7030000Y-23060000D03*
X7030000Y-22660000D03*
X7030000Y-22260000D03*
X7030000Y-21860000D03*
D107*
X7030000Y-21460000D03*
D108*
X6480000Y-20910000D03*
D103*
X6080000Y-20910000D03*
X5680000Y-20910000D03*
X5280000Y-20910000D03*
X4880000Y-20910000D03*
X4480000Y-20910000D03*
X4080000Y-20910000D03*
D109*
X3680000Y-20910000D03*
D110*
X3130000Y-21460000D03*
D106*
X3130000Y-21860000D03*
X3130000Y-22260000D03*
X3130000Y-22660000D03*
X3130000Y-23060000D03*
X3130000Y-23460000D03*
X3130000Y-23860000D03*
D111*
X3130000Y-24260000D03*
%TD*%
D115*
%TO.C,R109*%
X510000Y-6096000D03*
X-510000Y-6096000D03*
%TD*%
D29*
%TO.C,C80*%
X21308000Y-1524000D03*
X20348000Y-1524000D03*
%TD*%
M02*
