%TF.GenerationSoftware,KiCad,Pcbnew,10.0.1*%
%TF.CreationDate,2026-04-17T22:06:25-07:00*%
%TF.ProjectId,FreeEEG128-alpha,46726565-4545-4473-9132-382d616c7068,rev?*%
%TF.SameCoordinates,Original*%
%TF.FileFunction,Other,Comment*%
%FSLAX46Y46*%
G04 Gerber Fmt 4.6, Leading zero omitted, Abs format (unit mm)*
G04 Created by KiCad (PCBNEW 10.0.1) date 2026-04-17 22:06:25*
%MOMM*%
%LPD*%
G01*
G04 APERTURE LIST*
%ADD10C,0.075000*%
%ADD11C,0.150000*%
G04 APERTURE END LIST*
D10*
X-25000000Y25000000D02*
X0Y0D01*
X-25000000Y-25000000D02*
X0Y0D01*
X0Y0D02*
X-35000000Y14500000D01*
X0Y0D02*
X-35000000Y0D01*
X0Y0D02*
X-35000000Y-14500000D01*
X0Y0D02*
X-14500000Y35000000D01*
X0Y0D02*
X-14500000Y-35000000D01*
X0Y0D02*
X0Y35000000D01*
X0Y0D02*
X0Y-35000000D01*
X0Y0D02*
X14500000Y35000000D01*
X0Y0D02*
X14500000Y-35000000D01*
X0Y0D02*
X35000000Y14500000D01*
X0Y0D02*
X35000000Y-14500000D01*
X25000000Y25000000D02*
X0Y0D01*
X25000000Y-25000000D02*
X0Y0D01*
X35000000Y0D02*
X0Y0D01*
%TO.C,REF\u002A\u002A*%
D11*
X33045000Y15240000D02*
G75*
G02*
X26645000Y15240000I-3200000J0D01*
G01*
X26645000Y15240000D02*
G75*
G02*
X33045000Y15240000I3200000J0D01*
G01*
X-26645000Y-15240000D02*
G75*
G02*
X-33045000Y-15240000I-3200000J0D01*
G01*
X-33045000Y-15240000D02*
G75*
G02*
X-26645000Y-15240000I3200000J0D01*
G01*
X-12040000Y29845000D02*
G75*
G02*
X-18440000Y29845000I-3200000J0D01*
G01*
X-18440000Y29845000D02*
G75*
G02*
X-12040000Y29845000I3200000J0D01*
G01*
X18440000Y29845000D02*
G75*
G02*
X12040000Y29845000I-3200000J0D01*
G01*
X12040000Y29845000D02*
G75*
G02*
X18440000Y29845000I3200000J0D01*
G01*
X-12040000Y-29845000D02*
G75*
G02*
X-18440000Y-29845000I-3200000J0D01*
G01*
X-18440000Y-29845000D02*
G75*
G02*
X-12040000Y-29845000I3200000J0D01*
G01*
X-26645000Y15240000D02*
G75*
G02*
X-33045000Y15240000I-3200000J0D01*
G01*
X-33045000Y15240000D02*
G75*
G02*
X-26645000Y15240000I3200000J0D01*
G01*
%TD*%
M02*
